<svg width="59" height="17" viewBox="0 0 59 17" fill="none" xmlns="http://www.w3.org/2000/svg">
<path d="M3.92 12.64C1.75 12.64 0.406 11.352 0.294 9.406H2.226C2.338 10.246 2.968 10.778 3.92 10.778C4.76 10.778 5.32 10.47 5.32 9.798C5.32 9.252 4.998 8.944 4.312 8.762L2.66 8.314C1.148 7.908 0.42 6.872 0.42 5.416C0.42 3.47 1.946 2.56 3.668 2.56C5.628 2.56 6.832 3.694 7.056 5.374H5.124C4.956 4.716 4.27 4.422 3.64 4.422C2.856 4.422 2.296 4.73 2.296 5.416C2.296 5.99 2.73 6.228 3.276 6.382L4.872 6.816C6.384 7.222 7.196 8.118 7.196 9.798C7.196 11.59 6.09 12.64 3.92 12.64ZM14.4922 9.224H16.3822C16.3122 11.282 14.9682 12.64 12.6862 12.64C10.3342 12.64 8.99022 11.198 8.99022 9.014V6.186C8.99022 4.002 10.3342 2.56 12.6862 2.56C14.9682 2.56 16.3122 3.918 16.3822 5.976H14.4922C14.3942 4.968 13.6382 4.422 12.6862 4.422C11.6642 4.422 10.8662 5.052 10.8662 6.186V9.014C10.8662 10.148 11.6642 10.778 12.6862 10.778C13.6382 10.778 14.3942 10.232 14.4922 9.224ZM23.0838 8.748L21.9918 5.57L20.8998 8.748H23.0838ZM23.7278 10.526H20.2558L19.5558 12.5H17.5958L21.0958 2.7H22.8878L26.3878 12.5H24.4278L23.7278 10.526ZM35.4754 2.7V12.5H33.5994L29.9594 6.186V12.5H28.0834V2.7H29.9594L33.5994 9.014V2.7H35.4754Z" fill="#B9BFC6"/>
<g clip-path="url(#clip0_1004_119218)">
<path d="M58 6.75V2.5C58 1.94772 57.5523 1.5 57 1.5H53M58 10.25V14.5C58 15.0523 57.5523 15.5 57 15.5H53M49 1.5H45C44.4477 1.5 44 1.94772 44 2.5V6.75M44 10.25V14.5C44 15.0523 44.4477 15.5 45 15.5H49" stroke="#B9BFC6" stroke-width="2"/>
<path d="M47 8.5L55 8.5" stroke="#B9BFC6" stroke-width="2" stroke-linecap="round"/>
</g>
<defs>
<clipPath id="clip0_1004_119218">
<rect width="16" height="16" fill="white" transform="translate(43 0.5)"/>
</clipPath>
</defs>
</svg>
